<?xml version="1.0" encoding="utf-8"?>
<!-- Generator: Adobe Illustrator 21.0.0, SVG Export Plug-In . SVG Version: 6.00 Build 0)  -->
<svg version="1.1" id="圖層_1" xmlns="http://www.w3.org/2000/svg" xmlns:xlink="http://www.w3.org/1999/xlink" x="0px" y="0px"
	 viewBox="0 0 119.5 38" style="enable-background:new 0 0 119.5 38;" xml:space="preserve">
<style type="text/css">
	.st0{fill:#060001;}
	.st1{fill:#040000;}
	.st2{fill:#868686;}
</style>
<g>
	<path class="st0" d="M47.3,30.9l-0.9,2.8H46l-0.4-1.2c-0.1-0.3-0.1-0.6-0.2-0.9h0c-0.1,0.3-0.1,0.6-0.2,0.9l-0.4,1.2h-0.5l-0.8-2.8
		H44l0.3,1.3c0.1,0.3,0.1,0.6,0.2,0.9h0c0.1-0.3,0.1-0.6,0.2-0.9l0.4-1.4h0.5l0.4,1.3c0.1,0.3,0.2,0.6,0.2,0.9h0
		c0-0.3,0.1-0.6,0.2-0.9l0.3-1.3H47.3z"/>
	<path class="st0" d="M52.8,30.9L52,33.7h-0.5l-0.4-1.2c-0.1-0.3-0.1-0.6-0.2-0.9h0c-0.1,0.3-0.1,0.6-0.2,0.9l-0.4,1.2h-0.5
		l-0.8-2.8h0.6l0.3,1.3c0.1,0.3,0.1,0.6,0.2,0.9h0c0.1-0.3,0.1-0.6,0.2-0.9l0.4-1.4h0.5l0.4,1.3c0.1,0.3,0.2,0.6,0.2,0.9h0
		c0-0.3,0.1-0.6,0.2-0.9l0.3-1.3H52.8z"/>
	<path class="st0" d="M58.3,30.9l-0.9,2.8h-0.5l-0.4-1.2c-0.1-0.3-0.1-0.6-0.2-0.9h0c-0.1,0.3-0.1,0.6-0.2,0.9l-0.4,1.2h-0.5
		l-0.8-2.8H55l0.3,1.3c0.1,0.3,0.1,0.6,0.2,0.9h0c0.1-0.3,0.1-0.6,0.2-0.9l0.4-1.4h0.5l0.4,1.3c0.1,0.3,0.2,0.6,0.2,0.9h0
		c0-0.3,0.1-0.6,0.2-0.9l0.3-1.3H58.3z"/>
	<path class="st0" d="M60.1,33.3c0-0.2,0.2-0.4,0.4-0.4c0.2,0,0.4,0.2,0.4,0.4c0,0.2-0.1,0.4-0.4,0.4S60.1,33.5,60.1,33.3z"/>
	<path class="st0" d="M65.2,33.7h-0.6V32c0-0.4-0.1-0.7-0.5-0.7c-0.3,0-0.6,0.2-0.6,0.7v1.7h-0.6v-4.1h0.6v1.7h0
		c0.2-0.3,0.5-0.4,0.8-0.4c0.4,0,0.9,0.3,0.9,1.2V33.7z"/>
	<path class="st0" d="M67.6,30.4c-0.2,0-0.3-0.2-0.3-0.3c0-0.2,0.1-0.3,0.3-0.3c0.2,0,0.3,0.1,0.3,0.3C68,30.3,67.8,30.4,67.6,30.4z
		 M67.9,33.7h-0.6v-2.8h0.6V33.7z"/>
	<path class="st0" d="M72.4,33.7h-0.7l-0.8-1.3l-0.2,0.3v1h-0.6v-4.1h0.6v2.6h0c0.1-0.1,0.1-0.2,0.2-0.3l0.7-0.9h0.7l-1,1.2
		L72.4,33.7z"/>
	<path class="st0" d="M76.1,33c0,0.2,0,0.5,0,0.7h-0.5l0-0.3h0c-0.2,0.2-0.4,0.4-0.8,0.4c-0.5,0-0.8-0.4-0.8-0.8c0-0.7,0.6-1,1.6-1
		c0-0.2,0-0.6-0.6-0.6c-0.3,0-0.5,0.1-0.7,0.2L74.2,31c0.2-0.1,0.5-0.2,0.9-0.2c0.8,0,1.1,0.5,1.1,1.1V33z M75.6,32.3
		c-0.5,0-1,0.1-1,0.6c0,0.3,0.2,0.5,0.4,0.5c0.3,0,0.6-0.2,0.6-0.6V32.3z"/>
	<path class="st0" d="M79.7,31.4c-0.1,0-0.1,0-0.2,0c-0.4,0-0.6,0.3-0.6,0.8v1.5h-0.6v-2c0-0.3,0-0.6,0-0.9h0.5l0,0.5h0
		c0.1-0.4,0.4-0.6,0.7-0.6c0.1,0,0.1,0,0.1,0V31.4z"/>
	<path class="st0" d="M83.9,32.9c0,0.3,0,0.6,0,0.8h-0.5l0-0.4h0c-0.1,0.2-0.4,0.5-0.8,0.5c-0.5,0-0.9-0.3-0.9-1.2v-1.7h0.6v1.6
		c0,0.5,0.1,0.8,0.5,0.8c0.3,0,0.6-0.2,0.6-0.6v-1.7h0.6V32.9z"/>
	<path class="st0" d="M85.9,33.3c0-0.2,0.2-0.4,0.4-0.4c0.2,0,0.4,0.2,0.4,0.4c0,0.2-0.1,0.4-0.4,0.4S85.9,33.5,85.9,33.3z"/>
	<path class="st0" d="M90.6,33.6c-0.1,0.1-0.4,0.1-0.7,0.1c-0.8,0-1.3-0.6-1.3-1.4c0-0.9,0.6-1.5,1.5-1.5c0.3,0,0.5,0.1,0.6,0.1
		l-0.1,0.5c-0.1-0.1-0.3-0.1-0.5-0.1c-0.6,0-0.9,0.4-0.9,1c0,0.6,0.4,1,0.9,1c0.2,0,0.4-0.1,0.5-0.1L90.6,33.6z"/>
	<path class="st0" d="M94.9,32.2c0,1.1-0.7,1.5-1.3,1.5c-0.7,0-1.3-0.5-1.3-1.4c0-1,0.6-1.5,1.3-1.5C94.4,30.8,94.9,31.4,94.9,32.2z
		 M93.6,31.2c-0.5,0-0.7,0.5-0.7,1c0,0.6,0.3,1,0.7,1c0.4,0,0.7-0.5,0.7-1C94.3,31.8,94.1,31.2,93.6,31.2z"/>
	<path class="st0" d="M100.8,33.7h-0.6v-1.6c0-0.5-0.2-0.8-0.5-0.8c-0.3,0-0.5,0.2-0.5,0.7v1.7h-0.6V32c0-0.4-0.1-0.7-0.5-0.7
		c-0.3,0-0.6,0.2-0.6,0.7v1.7h-0.6v-2c0-0.3,0-0.6,0-0.8h0.5l0,0.4h0c0.1-0.2,0.4-0.5,0.8-0.5c0.4,0,0.6,0.2,0.7,0.5h0
		c0.2-0.3,0.5-0.5,0.9-0.5c0.4,0,0.9,0.3,0.9,1.2V33.7z"/>
	<path class="st0" d="M102.9,33.3c0-0.2,0.2-0.4,0.4-0.4c0.2,0,0.4,0.2,0.4,0.4c0,0.2-0.1,0.4-0.4,0.4S102.9,33.5,102.9,33.3z"/>
	<path class="st0" d="M105.7,30.3l0.6-0.2v0.7h0.7v0.4h-0.7v1.4c0,0.3,0.1,0.5,0.4,0.5c0.1,0,0.2,0,0.3,0l0,0.5
		c-0.1,0-0.3,0.1-0.5,0.1c-0.2,0-0.4-0.1-0.6-0.2c-0.1-0.2-0.2-0.4-0.2-0.8v-1.5h-0.4v-0.4h0.4V30.3z"/>
	<path class="st0" d="M112.5,30.9l-0.9,2.8h-0.5l-0.4-1.2c-0.1-0.3-0.1-0.6-0.2-0.9h0c-0.1,0.3-0.1,0.6-0.2,0.9l-0.4,1.2h-0.5
		l-0.8-2.8h0.6l0.3,1.3c0.1,0.3,0.1,0.6,0.2,0.9h0c0.1-0.3,0.1-0.6,0.2-0.9l0.4-1.4h0.5l0.4,1.3c0.1,0.3,0.2,0.6,0.2,0.9h0
		c0-0.3,0.1-0.6,0.2-0.9l0.3-1.3H112.5z"/>
</g>
<g>
	<path class="st1" d="M88.7,14.5c-0.3-0.2-0.7-0.3-1.1-0.4c-0.7-0.1-1.4-0.2-2.3,0.1c-0.4,0.1-0.8,0.3-1.2,0.5
		c-0.6,0.3-1.1,0.6-1.6,1.1c-0.5,0.4-1,0.9-1.4,1.5c-0.2,0.2-0.4,0.5-0.5,0.7c0-0.2,0.1-0.5,0.1-0.7c0.1-0.4,0.1-0.8,0.2-1.1
		c0-0.4,0.1-0.7,0.1-1l0-0.2c0-0.2-0.1-0.4-0.2-0.6c-0.1-0.2-0.2-0.3-0.4-0.4c-0.2-0.1-0.3-0.3-0.5-0.3c-0.2-0.1-0.4-0.2-0.7-0.2
		c-0.6,0-1.1,0.2-1.5,0.6c-0.3,0.3-0.5,0.8-0.7,1.3c-0.1,0.4-0.2,0.9-0.3,1.4c0,0.1,0,0.2,0,0.2c-0.1,0.1-0.2,0.2-0.3,0.2
		c-0.2,0.2-0.3,0.3-0.5,0.5c0,0,0,0,0,0l-0.2,0.2c-0.5,0.5-1,1-1.5,1.5c-0.5,0.4-1,0.8-1.5,1.2c-0.5,0.3-1,0.6-1.5,0.8
		c-0.5,0.2-0.9,0.3-1.4,0.3c-0.1,0-0.2,0-0.3-0.1c-0.1-0.1-0.3-0.2-0.4-0.4c-0.1-0.2-0.2-0.4-0.2-0.6c-0.1-0.2-0.1-0.4-0.1-0.6
		c0-0.3,0-0.7,0.1-1c0.1-0.4,0.2-0.8,0.3-1.1c0.1-0.4,0.2-0.7,0.3-1.1c0.1-0.4,0.1-0.7,0.1-1c0-0.2,0-0.4-0.2-0.7
		c-0.1-0.2-0.2-0.4-0.3-0.7c-0.1-0.2-0.3-0.4-0.4-0.6c-0.2-0.2-0.3-0.4-0.5-0.5c-0.2-0.1-0.4-0.2-0.6-0.2c-0.2-0.1-0.5-0.1-0.7-0.1
		c-0.2,0-0.5,0-0.7-0.1c-0.7,0-1.4,0-2.2,0.3c-0.5,0.2-1.1,0.5-1.6,0.9c-0.5,0.3-1.1,0.7-1.5,1.2c-0.5,0.4-0.9,0.9-1.3,1.3
		c-0.3,0.4-0.7,0.9-1,1.4c-0.3,0.5-0.7,1.1-0.9,1.7c0,0.1-0.1,0.2-0.1,0.3c-0.1,0.1-0.3,0.1-0.4,0.2c-0.2,0.1-0.3,0.3-0.6,0.5
		c-0.2,0.2-0.4,0.4-0.7,0.6c-0.3,0.2-0.5,0.5-0.8,0.7c-0.3,0.2-0.6,0.5-0.9,0.7c-0.3,0.2-0.6,0.4-1,0.6c-0.3,0.2-0.6,0.3-0.9,0.4
		c-0.5,0.2-0.9,0.1-1.2,0.1c-0.1,0-0.2,0-0.3-0.1c-0.1,0-0.3-0.1-0.5-0.2c-0.2-0.1-0.4-0.3-0.7-0.5c-0.3-0.2-0.6-0.4-0.9-0.7
		c-0.3-0.3-0.6-0.5-0.9-0.8l-0.8-0.8c-0.1-0.1-0.2-0.2-0.4-0.3c0.3-0.4,0.7-0.7,1-1.1c0.5-0.5,1.1-1.1,1.7-1.7
		c0.3-0.2,0.5-0.5,0.9-0.8c0.3-0.3,0.7-0.6,1-0.9c0.3-0.3,0.6-0.6,0.8-0.9c0.3-0.4,0.4-0.7,0.4-1c0-0.2,0-0.4-0.1-0.6
		c-0.1-0.2-0.2-0.4-0.3-0.6c-0.1-0.2-0.3-0.4-0.6-0.5c-0.6-0.3-1.6-0.2-2.4,0.2c-0.4,0.3-0.9,0.6-1.3,1c-0.4,0.4-0.7,0.8-1.1,1.2
		c-0.3,0.4-0.6,0.7-0.8,1c-0.2,0.3-0.5,0.6-0.7,1l-1.6,2c0-0.1,0-0.1,0-0.2c0.1-0.3,0.1-0.7,0.2-1.2c0.1-0.3,0.2-0.8,0.3-1.5
		c0.1-0.6,0.3-1.5,0.4-2.5l0.2-1.4c0.1-0.3,0.1-0.7,0.2-1.1c0.1-0.4,0.1-0.8,0.2-1.1c0-0.4,0.1-0.7,0.1-1c0-0.3,0.1-0.6,0.1-0.7
		c0-0.1,0-0.3,0-0.5c0-0.2-0.1-0.5-0.3-0.7c-0.2-0.2-0.4-0.4-0.7-0.6c-0.3-0.2-0.6-0.2-1.1-0.2c-0.4,0-0.7,0.1-1,0.3
		c-0.3,0.2-0.5,0.4-0.7,0.6c-0.2,0.2-0.3,0.5-0.4,0.8C41,7.7,40.9,8,40.9,8.2c0,0.5,0,1-0.1,1.5c0,0.5-0.1,1.1-0.2,1.6
		c-0.1,0.6-0.1,1.1-0.2,1.7c-0.1,0.6-0.1,1.1-0.2,1.7c0,0,0,0.2,0,0.3c0,0.2-0.1,0.5-0.1,0.9l-0.1,1c-0.1,0.1-0.2,0.1-0.3,0.2
		c-0.1,0.1-0.1,0.2-0.2,0.2c-0.1,0.1-0.1,0.2-0.1,0.2c-0.2,0.2-0.4,0.5-0.8,0.9c-0.3,0.3-0.7,0.7-1.1,1c-0.4,0.4-0.8,0.7-1.1,1
		c-0.4,0.3-0.7,0.6-1,0.9c-0.8,0.7-1.6,1.2-2.4,1.6c-0.4,0.2-0.6,0.3-0.9,0.3c-0.3,0-0.5,0.1-0.7,0.1c0,0-0.1,0-0.2-0.1
		C31.1,23.2,31,23,31,22.7c-0.1-0.3-0.2-0.7-0.2-1.1c-0.1-0.4-0.1-0.8-0.1-1.3c0-0.4,0-0.8,0.1-1.3c0-0.5,0.1-1.1,0.2-1.7
		c0.1-0.4,0.1-0.7,0.2-1.1c0.1-0.4,0.1-0.8,0.1-1.1c0-1-0.5-1.5-1.4-1.5c-0.7,0-1.3,0.2-1.9,0.7c-0.6,0.5-0.9,1-1.1,1.5
		c-0.1,0.2-0.1,0.6-0.2,1c0,0.3-0.1,0.7-0.1,1c-0.2,0.2-0.4,0.4-0.7,0.6c-0.4,0.4-0.8,0.7-1.1,1c-0.3,0.3-0.6,0.5-0.9,0.8
		c-0.3,0.2-0.6,0.4-1,0.6c-0.3,0.2-0.8,0.4-1.2,0.7c-0.2,0.1-0.4,0.2-0.6,0.3c-0.2,0.1-0.4,0.1-0.6,0.2c-0.2,0-0.4,0.1-0.6,0.1
		c-0.2,0-0.4,0-0.6,0c0,0,0,0-0.1-0.1c-0.1-0.2-0.2-0.5-0.3-0.8c-0.1-0.4-0.2-0.8-0.2-1.3c-0.1-0.5-0.1-1-0.2-1.5
		c-0.1-0.5-0.1-1-0.2-1.5c-0.1-0.5-0.2-0.9-0.3-1.2c-0.1-0.2-0.2-0.4-0.4-0.6c-0.2-0.2-0.3-0.3-0.5-0.4c-0.2-0.1-0.4-0.2-0.6-0.2
		c-0.2-0.1-0.4-0.1-0.5-0.1c-0.4,0-0.9,0.1-1.4,0.3c-0.4,0.2-0.9,0.4-1.3,0.7c-0.4,0.3-0.8,0.6-1.2,0.9c-0.4,0.3-0.7,0.6-1,0.9
		c-0.2,0.2-0.4,0.5-0.7,0.8s-0.5,0.6-0.7,0.9c-0.2,0.3-0.4,0.6-0.6,0.8c-0.2,0.3-0.4,0.5-0.5,0.7l-0.2,0.3c0-0.2,0-0.3,0.1-0.5
		c0-0.3,0.1-0.6,0.1-0.7c0,0,0-0.2,0.1-0.5c0-0.2,0.1-0.6,0.1-1l0.6-4.5c0.1-0.5,0.1-1,0.2-1.4l0.2-1.1c0-0.3,0.1-0.5,0.1-0.7
		c0,0,0-0.1,0-0.3l0.1-0.6c0-0.2,0.1-0.4,0.1-0.7c0-0.3,0.1-0.5,0.1-0.6c0-0.6-0.2-1.1-0.5-1.5c-0.5-0.5-1.3-0.7-2-0.4
		C7.6,6.1,7.4,6.2,7.2,6.4C7,6.5,6.9,6.6,6.7,6.8C6.6,6.9,6.5,7.1,6.5,7.2C6.3,7.5,6.2,7.7,6.1,8C6.1,8.2,6,8.4,5.9,8.7
		C5.9,8.9,5.8,9.1,5.8,9.4c0,0.2,0,0.5,0,0.7l0,0.8c0,0.3,0,0.6-0.1,1c0,0.4,0,0.7-0.1,1.1c0,0.4,0,0.7-0.1,1.1l-0.1,1.6
		c0,0.5-0.1,1.1-0.1,1.8c-0.1,0.7-0.1,1.3-0.2,2c-0.1,0.7-0.1,1.4-0.2,2c-0.1,0.7-0.1,1.3-0.2,1.9c0,0.3-0.1,0.6-0.1,1
		c0,0.3-0.1,0.7-0.1,1c0,0.3-0.1,0.6-0.1,0.9c0,0.3-0.1,0.5-0.1,0.6c0,0.2,0.1,0.5,0.2,0.7c0.1,0.2,0.2,0.4,0.4,0.6
		c0.2,0.2,0.4,0.3,0.6,0.4c0.2,0.1,0.5,0.2,0.8,0.2c0.1,0,0.2,0,0.4-0.1c0.1,0,0.3-0.1,0.4-0.2c0.2-0.1,0.3-0.2,0.5-0.3
		c0.2-0.1,0.3-0.3,0.5-0.5c0.1-0.2,0.3-0.5,0.5-0.8l0.5-1c0.2-0.3,0.4-0.7,0.5-1c0.2-0.3,0.4-0.6,0.5-0.9c0.5-0.7,1-1.4,1.5-2
		c0.5-0.7,1-1.2,1.5-1.7c0.5-0.5,0.9-0.9,1.2-1.2c0.2-0.2,0.4-0.3,0.5-0.4c0,0,0,0.1,0,0.1c0,0.2,0.1,0.4,0.1,0.6c0,0.2,0,0.4,0,0.6
		c0,0.2,0.1,0.6,0.1,1c0.1,0.4,0.1,0.8,0.2,1.2c0.1,0.4,0.2,0.8,0.3,1.1c0.1,0.4,0.2,0.7,0.3,0.9c0.3,0.6,0.7,1,1.3,1.3
		c1.1,0.5,2.7,0.5,4.1,0c0.7-0.2,1.4-0.6,2-0.9c0.6-0.4,1.3-0.8,1.9-1.3c0.5-0.4,1-0.8,1.4-1.3c0,0.5,0.1,1,0.2,1.4
		c0.1,0.5,0.3,1.1,0.5,1.6c0.2,0.5,0.5,1,0.9,1.4c0.4,0.4,0.8,0.7,1.3,1c0.5,0.2,1.1,0.4,1.8,0.4c0.6,0,1.2-0.1,1.9-0.4
		c0.6-0.3,1.3-0.6,1.9-1.1c0.6-0.5,1.2-0.9,1.8-1.4c0.6-0.5,1.1-1,1.6-1.5c0.3-0.3,0.6-0.6,0.9-1l0,0.2c0,0.2,0,0.4-0.1,0.4
		c0,0.2-0.1,0.5-0.1,0.8c0,0.3-0.1,0.6-0.1,0.9c0,0.3-0.1,0.6-0.1,0.9c0,0.3-0.1,0.6-0.1,0.8c0,0.3,0,0.5,0,0.7
		c0,0.3,0.1,0.5,0.3,0.6c0.1,0.2,0.4,0.3,0.6,0.4c0.2,0.1,0.5,0.1,0.8,0.1c0.4,0,0.7,0,1-0.1c0.3-0.1,0.6-0.3,0.8-0.5
		c0.2-0.2,0.3-0.5,0.3-0.9c0-0.3,0.1-0.7,0.1-1.1c0-0.2,0-0.5,0.1-0.6c0-0.1,0.1-0.3,0.2-0.5c0.1-0.2,0.3-0.4,0.4-0.6
		c0.1-0.1,0.3-0.3,0.5-0.5c0.1,0.1,0.2,0.1,0.2,0.2l0.7,0.7c0.2,0.3,0.5,0.5,0.8,0.8c0.3,0.3,0.5,0.5,0.8,0.8
		c0.3,0.3,0.6,0.5,0.9,0.7c0.3,0.2,0.6,0.4,1,0.6c0.3,0.2,0.7,0.3,1.1,0.4c0.9,0.3,2,0.2,3.1-0.3c0.6-0.3,1.2-0.6,1.8-1
		c0.6-0.4,1.2-0.9,1.7-1.4c0.2-0.2,0.4-0.4,0.6-0.5c0,0.1,0.1,0.3,0.1,0.5c0.1,0.4,0.3,0.9,0.5,1.3c0.2,0.4,0.6,0.8,0.9,1
		c0.4,0.3,0.9,0.5,1.4,0.5c0.3,0,0.6,0,1-0.1c0.3-0.1,0.7-0.2,1-0.3c0.3-0.1,0.6-0.3,0.9-0.4c0.3-0.2,0.6-0.3,0.8-0.4
		c0.3-0.2,0.6-0.4,1-0.7c0.3-0.3,0.7-0.6,1-0.9c0.3-0.3,0.6-0.6,0.9-1c0,0,0.1-0.1,0.1-0.1c0,0.1,0.1,0.2,0.1,0.3
		c0.2,0.4,0.5,0.7,0.8,1c0.3,0.3,0.6,0.5,1,0.6c0.4,0.2,0.8,0.2,1.1,0.2c0.8,0,1.5-0.1,2.2-0.4c0.7-0.2,1.3-0.5,1.9-0.9
		c0.6-0.4,1.2-0.8,1.7-1.3c0.4-0.3,0.7-0.6,1.1-1c0,0.2,0,0.4-0.1,0.6l0,0.7c0,0.2,0,0.4,0,0.6c0,0.2,0,0.4,0,0.7
		c0,1.1,0.1,1.9,0.4,2.5c0.3,0.7,0.9,1.1,1.7,1.1c0,0,0,0,0,0c0.2,0,0.4,0,0.5-0.1c0.2,0,0.4-0.1,0.5-0.2c0.2-0.1,0.4-0.2,0.5-0.3
		c0.2-0.2,0.3-0.4,0.4-0.6c0.1-0.3,0.1-0.5,0.2-0.7c0-0.2,0.1-0.4,0.1-0.6c0.1-0.4,0.2-0.8,0.4-1.2c0.1-0.4,0.3-0.8,0.4-1.1
		c0.2-0.4,0.4-0.8,0.6-1.2c0.2-0.4,0.5-0.8,0.7-1.1c0.2-0.3,0.5-0.7,0.7-1c0.2-0.3,0.5-0.5,0.7-0.7c1-0.9,2.2-1.4,3.5-1.5l0.6,0
		c0.1,0,0.3,0,0.4,0c0.1,0,0.2,0,0.3,0c0.3,0,0.5-0.1,0.7-0.3c0.2-0.1,0.3-0.3,0.4-0.5c0.1-0.2,0.2-0.3,0.2-0.5
		c0-0.2,0.1-0.3,0.1-0.5c0-0.4-0.2-0.7-0.4-1C89.3,14.9,89,14.7,88.7,14.5z M65.7,16.5c0,0.6-0.1,1.3-0.3,1.8
		c-0.2,0.6-0.5,1.2-0.8,1.8c-0.3,0.4-0.6,0.9-1,1.3c-0.4,0.4-0.8,0.8-1.2,1.2c-0.4,0.3-0.8,0.6-1.2,0.8c-0.4,0.2-0.7,0.3-0.9,0.3
		c0,0,0-0.1,0-0.1c0-0.1,0-0.2,0-0.2c0-0.4,0.1-0.8,0.3-1.3c0.2-0.5,0.4-1.1,0.7-1.6c0.3-0.5,0.6-1.1,0.9-1.5
		c0.3-0.5,0.6-0.8,0.9-1.1c0.5-0.5,1-0.9,1.4-1.2c0.4-0.2,0.8-0.4,1.2-0.4c0,0,0,0,0,0.1c0,0.1,0.1,0.1,0.1,0.2
		C65.7,16.4,65.7,16.4,65.7,16.5z"/>
	<path class="st1" d="M114.3,15.5c-0.3-0.3-0.8-0.4-1.4-0.1c-0.2,0.1-0.4,0.3-0.6,0.4c-0.2,0.2-0.4,0.4-0.6,0.6
		c-0.2,0.2-0.4,0.4-0.6,0.6c-0.5,0.5-1,1-1.6,1.5c-0.5,0.5-1.1,0.9-1.6,1.3c-0.5,0.4-1,0.7-1.5,0.9c-0.5,0.2-0.9,0.3-1.3,0.3
		c0,0,0,0-0.1-0.1c-0.1-0.1-0.2-0.3-0.3-0.5c-0.1-0.2-0.2-0.4-0.3-0.6c-0.1-0.2-0.1-0.4-0.2-0.5c0-0.1,0-0.3-0.1-0.5
		c0-0.2,0-0.4,0-0.6c0-0.2,0-0.4,0-0.6c0-0.2,0-0.4,0-0.5c0-0.1,0-0.3,0-0.6c0-0.3,0.1-0.6,0.1-0.9c0-0.3,0.1-0.6,0.1-0.9
		c0-0.3,0.1-0.6,0.1-0.7c0-0.5-0.1-0.9-0.4-1.1c-0.3-0.2-0.6-0.3-1.1-0.3c-0.4,0-0.8,0.2-1.2,0.6c-0.4,0.3-0.7,0.8-0.9,1.4
		c-0.2,0.4-0.4,0.9-0.6,1.4c-0.2,0.5-0.4,1-0.7,1.5c-0.2,0.5-0.5,1-0.7,1.5c-0.2,0.4-0.4,0.8-0.7,1.1c-0.2,0.3-0.5,0.7-0.9,1.1
		c-0.3,0.4-0.7,0.8-1.1,1.1c-0.4,0.3-0.7,0.6-1.1,0.8c-0.3,0.2-0.7,0.3-0.9,0.3c-0.1-0.1-0.1-0.3-0.1-0.5c0-0.4,0.1-0.9,0.2-1.4
		c0.1-0.6,0.3-1.1,0.4-1.7c0.1-0.3,0.1-0.6,0.2-0.9c0.1-0.3,0.1-0.6,0.2-0.9c0-0.3,0.1-0.6,0.1-0.9c0-0.3,0-0.5,0-0.8
		c0-0.8-0.1-1.4-0.4-1.8c-0.3-0.5-0.9-0.7-1.6-0.7c-0.3,0-0.6,0-0.9,0.1c-0.3,0.1-0.5,0.2-0.6,0.4c-0.2,0.2-0.3,0.4-0.4,0.6
		c-0.1,0.2-0.1,0.4-0.2,0.6c0,0.3-0.1,0.6-0.1,0.9c0,0.3-0.1,0.6-0.1,0.9L90.9,19c0,0.3-0.1,0.7-0.1,1l-0.2,1.1
		c-0.1,0.4-0.1,0.7-0.2,1.1c-0.1,0.4-0.1,0.8-0.1,1.1c0,0.4,0.1,0.9,0.2,1.3c0.1,0.4,0.3,0.8,0.6,1.2c0.3,0.3,0.6,0.6,1,0.9
		c0.4,0.2,0.9,0.3,1.4,0.3c0.6,0,1.1-0.1,1.6-0.2c0.5-0.1,1-0.3,1.5-0.6c0.5-0.2,0.9-0.5,1.3-0.9c0.4-0.3,0.8-0.7,1.1-1
		c0.2-0.2,0.5-0.5,0.8-0.9c0.3-0.3,0.5-0.7,0.8-1.1c0.2-0.3,0.4-0.6,0.6-1c0,0.1,0,0.2,0.1,0.3c0.2,0.6,0.4,1.1,0.7,1.5
		c0.3,0.5,0.7,0.8,1.1,1.1c0.5,0.3,1.1,0.4,1.7,0.4c0.5,0,1.1-0.1,1.8-0.4c0.6-0.3,1.3-0.6,2.1-1.1c0.7-0.4,1.4-1,2.2-1.6
		c0.7-0.6,1.4-1.2,1.9-1.8c0.6-0.6,1.1-1.3,1.4-1.9c0.4-0.7,0.6-1.3,0.6-1.9C114.6,15.9,114.5,15.7,114.3,15.5z"/>
</g>
<path class="st2" d="M31,11.1c-1.7,0-3-1.3-3-3c0-1.7,1.3-3,3-3s3,1.3,3,3C34,9.7,32.6,11.1,31,11.1z M31,6.1c-1.1,0-2,0.9-2,2
	c0,1.1,0.9,2,2,2s2-0.9,2-2C33,7,32.1,6.1,31,6.1z"/>
</svg>
